<svg width="47" height="47" viewBox="0 0 47 47" fill="none" xmlns="http://www.w3.org/2000/svg">
<g clip-path="url(#clip0_3270_1279)">
<path fill-rule="evenodd" clip-rule="evenodd" d="M22.2598 18.3403C22.2598 15.8814 24.1601 13.4268 26.9576 13.4268C29.755 13.4268 31.6553 15.8814 31.6553 18.3403V18.9876C31.6553 21.4465 29.755 23.9011 26.9576 23.9011C24.1601 23.9011 22.2598 21.4465 22.2598 18.9876V18.3403ZM26.9576 15.2699C25.3544 15.2699 24.1029 16.7136 24.1029 18.3403V18.9876C24.1029 20.6143 25.3544 22.058 26.9576 22.058C28.5607 22.058 29.8122 20.6143 29.8122 18.9876V18.3403C29.8122 16.7136 28.5607 15.2699 26.9576 15.2699Z" fill="#414141"/>
<path fill-rule="evenodd" clip-rule="evenodd" d="M22.3685 27.3872C23.3052 26.0987 24.8133 25.2952 26.9578 25.2957C29.102 25.2961 30.6098 26.0996 31.5465 27.3878C32.4472 28.6265 32.7342 30.1955 32.7342 31.6109V35.9265C32.7342 36.3078 32.6117 36.6765 32.4931 36.9575C32.3676 37.2548 32.2075 37.5427 32.0589 37.7851C31.9113 38.026 31.7651 38.2378 31.6553 38.3904V45.6367C31.6553 46.1457 31.2427 46.5583 30.7337 46.5583C30.2247 46.5583 29.8121 46.1457 29.8121 45.6367V38.0844C29.8121 37.877 29.8821 37.6756 30.0106 37.513L30.0179 37.5037C30.024 37.4958 30.0336 37.4834 30.0463 37.4666C30.0718 37.4332 30.1093 37.3829 30.155 37.3198C30.2467 37.1925 30.3678 37.017 30.4875 36.822C30.6086 36.6242 30.7183 36.4224 30.7951 36.2406C30.8331 36.1505 30.8589 36.0751 30.8744 36.0153C30.8906 35.9534 30.891 35.9265 30.891 35.9265V31.6109C30.891 30.4007 30.6387 29.2734 30.0558 28.4717C29.5089 27.7197 28.5893 27.1392 26.9573 27.1388C25.3257 27.1384 24.4061 27.7189 23.8594 28.471C23.2765 29.2729 23.024 30.4007 23.024 31.6109V35.9265C23.024 35.9265 23.0252 35.9562 23.0406 36.0153C23.0562 36.0751 23.082 36.1505 23.12 36.2406C23.1968 36.4224 23.3064 36.6242 23.4276 36.822C23.5472 37.017 23.6683 37.1925 23.7601 37.3198C23.8057 37.3829 23.8433 37.4332 23.8688 37.4666C23.8815 37.4834 23.8911 37.4958 23.8971 37.5037L23.9034 37.5117L23.9041 37.5125C24.0329 37.6754 24.1029 37.8768 24.1029 38.0844V45.6367C24.1029 46.1457 23.6903 46.5583 23.1814 46.5583C22.6724 46.5583 22.2598 46.1457 22.2598 45.6367V38.3904C22.1499 38.2378 22.0038 38.026 21.8561 37.7851C21.7076 37.5427 21.5475 37.2548 21.422 36.9575C21.3034 36.6765 21.1809 36.3078 21.1809 35.9265V31.6109C21.1809 30.1956 21.4679 28.6261 22.3685 27.3872Z" fill="#414141"/>
<path fill-rule="evenodd" clip-rule="evenodd" d="M9.15558 35.0049C9.66451 35.0049 10.0772 35.4176 10.0772 35.9265V45.6366C10.0772 46.1456 9.66451 46.5582 9.15558 46.5582C8.64661 46.5582 8.23401 46.1456 8.23401 45.6366V35.9265C8.23401 35.4176 8.64661 35.0049 9.15558 35.0049Z" fill="#414141"/>
<path fill-rule="evenodd" clip-rule="evenodd" d="M15.6291 35.0049C16.1381 35.0049 16.5507 35.4176 16.5507 35.9265V45.6366C16.5507 46.1456 16.1381 46.5582 15.6291 46.5582C15.1201 46.5582 14.7075 46.1456 14.7075 45.6366V35.9265C14.7075 35.4176 15.1201 35.0049 15.6291 35.0049Z" fill="#414141"/>
<path fill-rule="evenodd" clip-rule="evenodd" d="M7.95243 20.7002C8.45404 20.7865 8.79075 21.263 8.7045 21.7647L6.42785 35.0049H17.8171L15.5404 21.7647C15.4542 21.263 15.7909 20.7865 16.2925 20.7002C16.7941 20.614 17.2707 20.9507 17.3569 21.4523L19.8189 35.7703C19.865 36.0381 19.7904 36.3125 19.6153 36.5204C19.4402 36.7281 19.1824 36.8481 18.9107 36.8481H5.3343C5.06258 36.8481 4.8047 36.7281 4.6296 36.5204C4.45449 36.3125 4.38001 36.0381 4.42606 35.7703L6.88802 21.4523C6.97427 20.9507 7.45082 20.614 7.95243 20.7002Z" fill="#414141"/>
<path fill-rule="evenodd" clip-rule="evenodd" d="M30.8911 5.89227C30.8911 3.16384 33.0296 0.479736 36.1284 0.479736C39.2272 0.479736 41.3656 3.16384 41.3656 5.89227V6.62054C41.3656 9.34904 39.2272 12.033 36.1284 12.033C33.0295 12.033 30.8911 9.34904 30.8911 6.62054V5.89227ZM36.1284 2.32287C34.198 2.32287 32.7343 4.02453 32.7343 5.89227V6.62054C32.7343 8.48836 34.1979 10.1899 36.1284 10.1899C38.0588 10.1899 39.5224 8.48836 39.5224 6.62054V5.89227C39.5224 4.02453 38.0588 2.32287 36.1284 2.32287Z" fill="#414141"/>
<path fill-rule="evenodd" clip-rule="evenodd" d="M7.15503 5.89227C7.15503 3.16384 9.29346 0.479736 12.3922 0.479736C15.491 0.479736 17.6294 3.16384 17.6294 5.89227V6.62054C17.6294 9.34904 15.491 12.033 12.3922 12.033C9.29346 12.033 7.15503 9.34904 7.15503 6.62054V5.89227ZM12.3922 2.32287C10.4618 2.32287 8.99817 4.02453 8.99817 5.89227V6.62054C8.99817 8.48836 10.4618 10.1899 12.3922 10.1899C14.3226 10.1899 15.7863 8.48836 15.7863 6.62054V5.89227C15.7863 4.02453 14.3226 2.32287 12.3922 2.32287Z" fill="#414141"/>
<path fill-rule="evenodd" clip-rule="evenodd" d="M36.1284 30.6895C36.6373 30.6895 37.0499 31.102 37.0499 31.611V45.6368C37.0499 46.1458 36.6373 46.5584 36.1284 46.5584C35.6194 46.5584 35.2068 46.1458 35.2068 45.6368V31.611C35.2068 31.102 35.6194 30.6895 36.1284 30.6895Z" fill="#414141"/>
<path fill-rule="evenodd" clip-rule="evenodd" d="M33.0922 13.6478C34.0559 13.5021 35.0756 13.4277 36.1283 13.4277C38.912 13.4277 41.4994 13.9483 43.4271 14.9651C45.3574 15.9833 46.7601 17.5892 46.7601 19.743V27.3112C46.7602 27.8287 46.7604 29.1199 46.0922 30.2923C45.3628 31.5722 43.9513 32.5317 41.5229 32.5317C41.0139 32.5317 40.6013 32.1191 40.6013 31.6101C40.6013 31.1011 41.0139 30.6885 41.5229 30.6885C43.3901 30.6885 44.1364 30.0016 44.4909 29.3796C44.8997 28.6623 44.917 27.8107 44.917 27.2953V19.743C44.917 18.5211 44.1494 17.43 42.5671 16.5953C40.982 15.7592 38.7142 15.2709 36.1283 15.2709C35.1614 15.2709 34.2341 15.3393 33.3678 15.4702C32.8646 15.5463 32.3949 15.2 32.3188 14.6968C32.2427 14.1936 32.589 13.7239 33.0922 13.6478Z" fill="#414141"/>
<path fill-rule="evenodd" clip-rule="evenodd" d="M41.5229 20.9792C42.0318 20.9792 42.4445 21.3918 42.4445 21.9008V45.6368C42.4445 46.1457 42.0318 46.5584 41.5229 46.5584C41.0139 46.5584 40.6013 46.1457 40.6013 45.6368V21.9008C40.6013 21.3918 41.0139 20.9792 41.5229 20.9792Z" fill="#414141"/>
<path fill-rule="evenodd" clip-rule="evenodd" d="M6.11443 14.8592C7.77054 13.8606 9.91236 13.4268 12.3923 13.4268C15.8681 13.4268 18.7079 14.2835 20.4345 16.3647C20.7594 16.7564 20.7053 17.3374 20.3135 17.6624C19.9218 17.9873 19.3408 17.9332 19.0159 17.5415C17.7984 16.074 15.63 15.2699 12.3923 15.2699C10.0993 15.2699 8.33008 15.6755 7.0661 16.4376C5.83548 17.1796 5.01625 18.2984 4.66234 19.904C4.48923 20.7402 4.11495 22.4546 3.73086 24.2141L3.68817 24.4096C3.28713 26.2467 2.88289 28.1002 2.68558 29.0551C2.5826 29.5536 2.09504 29.8741 1.5966 29.7711C1.09816 29.6681 0.777588 29.1806 0.880576 28.6821C1.08052 27.7144 1.48764 25.8479 1.88744 24.0165L1.92736 23.8337C2.31452 22.0602 2.68813 20.3488 2.85861 19.5249L2.86087 19.5139C3.31678 17.4381 4.42631 15.8769 6.11443 14.8592Z" fill="#414141"/>
</g>
<defs>
<clipPath id="clip0_3270_1279">
<rect width="47" height="47" fill="white"/>
</clipPath>
</defs>
</svg>
