<svg width="49" height="49" viewBox="0 0 49 49" fill="none" xmlns="http://www.w3.org/2000/svg">
<g clip-path="url(#clip0_1380_1532)">
<path d="M48.6482 24.4618C48.6482 11.1938 37.7303 0.275879 24.4623 0.275879C11.1943 0.275879 0.276367 11.1938 0.276367 24.4618C0.276367 37.7298 11.1943 48.6477 24.4623 48.6477C37.7303 48.6477 48.6482 37.7298 48.6482 24.4618Z" stroke="#656165" stroke-width="8.33"/>
<path d="M30.3845 13.4099C30.3845 10.3995 27.9073 7.92236 24.8969 7.92236C21.8865 7.92236 19.4094 10.3995 19.4094 13.4099C19.4094 16.4203 21.8865 18.8975 24.8969 18.8975C27.9073 18.8975 30.3845 16.4203 30.3845 13.4099Z" stroke="#8D7B8E" stroke-width="8.33"/>
<path d="M33.5624 19.3839C33.3406 19.1837 33.0767 19.0391 32.7706 18.9503C32.5825 18.8961 32.3037 18.8706 31.9343 18.8738C31.3437 18.8794 30.6762 18.8784 29.9318 18.8709C29.9315 18.8709 29.9311 18.8709 29.9308 18.8709C29.8958 18.8709 29.8669 18.8996 29.8666 18.9346C29.8568 19.744 29.8586 20.508 29.872 21.2266C29.8818 21.7548 30.0523 22.2137 30.3835 22.6034C30.8578 23.1613 31.4686 23.443 32.216 23.4486C32.4564 23.4502 32.8604 23.4499 33.4281 23.4476C33.4639 23.4476 33.4933 23.477 33.4933 23.5128V26.2365C33.4933 26.2553 33.5088 26.2708 33.5276 26.2708H34.3605C34.3939 26.2708 34.4213 26.2433 34.4213 26.21V23.4991C34.4213 23.4769 34.4393 23.4584 34.4615 23.4579C34.9717 23.4478 35.6075 23.446 36.3689 23.4525C36.8298 23.4564 37.2364 23.4029 37.5889 23.2918C38.5058 23.0031 39.179 22.4056 39.6085 21.4995C39.7888 21.1193 39.8471 20.746 39.8853 20.3197C39.8994 20.1639 39.9059 20.0014 39.9049 19.8322C39.901 19.0656 39.8994 18.2741 39.9 17.4578C39.9 17.3621 39.8956 17.256 39.8868 17.1394C39.8849 17.1133 39.8647 17.0921 39.8388 17.0889C39.7183 17.0742 39.6229 17.0674 39.5527 17.0683C39.3312 17.0716 38.7058 17.0713 37.6766 17.0674C36.8776 17.0641 36.3864 17.0783 36.2028 17.11C34.9926 17.3177 33.9862 18.1815 33.6114 19.3707C33.6076 19.3832 33.5959 19.3919 33.5828 19.3919C33.5752 19.3919 33.5679 19.389 33.5624 19.3839Z" stroke="#8D7B8E" stroke-width="8.33"/>
<path d="M15.8179 25.1444C16.1075 25.1444 16.3976 25.0635 16.6621 24.9263C16.7804 24.8649 16.9767 24.6941 17.2511 24.4138C17.7071 23.9484 18.3146 23.3403 19.0737 22.5897C19.302 22.364 19.4556 22.1848 19.5343 22.0522C20.332 20.7122 19.7053 18.9787 18.1908 18.5451C17.3378 18.3011 16.5142 18.5353 15.8777 19.1232C15.8647 19.1353 15.8455 19.1414 15.8204 19.1414C15.7952 19.1414 15.7761 19.1353 15.7631 19.1232C15.1271 18.5348 14.3035 18.3001 13.4504 18.5431C11.9355 18.9757 11.3074 20.7087 12.104 22.0493C12.1828 22.1819 12.3361 22.3612 12.5641 22.5872C13.3229 23.3385 13.93 23.947 14.3853 24.4128C14.6597 24.6931 14.8558 24.8639 14.9737 24.9253C15.2383 25.063 15.5284 25.1444 15.8179 25.1444Z" stroke="#8D7B8E" stroke-width="8.33"/>
<path d="M31.7011 30.9924C31.7006 30.9925 31.7001 30.9925 31.6996 30.9925C31.6937 30.9925 31.6888 30.988 31.6883 30.9821C31.609 30.0277 30.8755 29.2198 29.9735 28.988C29.783 28.939 29.4061 28.9145 28.8426 28.9145C25.8989 28.9142 24.194 28.9161 23.7279 28.9204C23.6427 28.9214 23.5733 28.9034 23.5197 28.8665C23.3467 28.7474 23.189 28.5637 23.041 28.4505C21.771 27.4781 20.3626 27.0071 18.8156 27.0375C17.7703 27.0577 16.763 27.3334 15.7935 27.8645C14.9581 28.3222 14.2335 28.9998 13.696 29.7313C13.6849 29.7461 13.6677 29.7548 13.6494 29.7548H11.4069C11.3733 29.7548 11.3456 29.7274 11.3456 29.694V27.624C11.3456 27.5791 11.3089 27.5421 11.2643 27.5421H10.4784C10.4362 27.5421 10.4015 27.5771 10.4015 27.6195V40.0778C10.4015 40.1023 10.4216 40.1224 10.4461 40.1224H11.2677C11.3056 40.1224 11.337 40.0917 11.3378 40.0538C11.3466 39.7216 11.3599 39.4796 11.3505 39.2209C11.3404 38.9533 11.3353 38.6185 11.3353 38.2164C11.335 38.0874 11.3976 38.0231 11.523 38.0234C11.5269 38.0237 11.9119 38.0229 12.6778 38.0209C14.3976 38.0174 19.9709 38.017 29.3978 38.02C30.0609 38.02 30.7127 38.0167 31.3533 38.0102C31.3998 38.0095 31.4445 37.9927 31.4797 37.9626C31.6554 37.8134 31.8337 37.6561 32.0147 37.4908C32.8326 36.7444 33.6861 35.9605 34.5752 35.139C34.6049 35.1116 34.635 35.0841 34.6654 35.0567C35.4389 34.3593 36.2834 33.5912 37.199 32.7524C37.6171 32.3692 38.0378 31.9854 38.4611 31.601C38.7564 31.3325 38.9854 31.1249 39.148 30.9783C39.4018 30.7493 39.7116 30.4631 40.0775 30.1198C40.6865 29.5476 40.955 28.6921 40.8017 27.868C40.6262 26.9248 39.9266 26.1918 38.9932 25.9336C38.7227 25.8587 38.2911 25.8587 38.0593 25.8807C37.5713 25.9274 37.1039 26.151 36.6571 26.5514C34.3565 28.6132 32.8955 29.9204 32.2739 30.4731C32.0472 30.6746 31.8649 30.8435 31.7271 30.9797C31.7196 30.9872 31.7109 30.9915 31.7011 30.9925" stroke="#8D7B8E" stroke-width="8.33"/>
<path d="M24.0017 8.97896C24.0031 8.9768 24.0039 8.9743 24.0039 8.97173C24.0039 8.96447 23.9979 8.9585 23.9906 8.9585C23.9896 8.9585 23.9885 8.95863 23.9875 8.95887C23.1709 9.13199 22.4587 9.49751 21.8508 10.0554C21.0185 10.8188 20.5289 11.766 20.3819 12.8972C20.3817 12.8986 20.3816 12.9001 20.3816 12.9016C20.3816 12.9206 20.3972 12.9363 20.4162 12.9364H22.7616C22.7771 12.9363 22.7903 12.9248 22.7925 12.9094C22.8137 12.7647 22.8323 12.5898 22.8483 12.3847C22.9272 11.3915 23.2202 10.2524 23.7459 9.38758C23.7753 9.33891 23.8606 9.20271 24.0017 8.97896Z" stroke="#8D7B8E" stroke-width="8.33"/>
<path d="M25.7896 8.98141C25.9307 9.20515 26.0162 9.34137 26.0459 9.39004C26.5721 10.2538 26.8661 11.3925 26.9454 12.3857C26.9618 12.5905 26.9806 12.7652 27.0018 12.9099C27.004 12.9252 27.0172 12.9368 27.0327 12.9369L29.3776 12.9349C29.3966 12.9348 29.4122 12.9191 29.4122 12.9001C29.4122 12.8986 29.4121 12.8972 29.4119 12.8957C29.2639 11.7649 28.7737 10.8183 27.9411 10.0559C27.3328 9.49864 26.6204 9.13378 25.8038 8.96131C25.8028 8.96107 25.8018 8.96094 25.8007 8.96094C25.7934 8.96094 25.7875 8.96691 25.7875 8.97417C25.7875 8.97674 25.7882 8.97926 25.7896 8.98141Z" stroke="#8D7B8E" stroke-width="8.33"/>
<path d="M24.8901 9.41211C24.8698 9.41211 24.8525 9.42207 24.8382 9.44199C24.2203 10.2823 23.8989 11.3122 23.7975 12.3509C23.7756 12.5711 23.7563 12.7572 23.7397 12.9094C23.7395 12.9104 23.7395 12.9114 23.7395 12.9124C23.7395 12.9274 23.7519 12.9398 23.7669 12.9398C23.767 12.9398 23.767 12.9398 23.7671 12.9398C24.1754 12.9362 24.552 12.9339 24.8969 12.933C25.2422 12.9323 25.6188 12.9326 26.0268 12.9339C26.027 12.9339 26.0272 12.9339 26.0275 12.9339C26.0425 12.9339 26.0549 12.9216 26.0549 12.9065C26.0549 12.9055 26.0548 12.9046 26.0547 12.9036C26.0371 12.7514 26.0168 12.5653 25.994 12.3455C25.8872 11.3073 25.5608 10.2788 24.9391 9.44199C24.9244 9.42207 24.908 9.41211 24.8901 9.41211Z" stroke="#8D7B8E" stroke-width="8.33"/>
<path d="M23.9596 17.8258C23.8207 17.6027 23.7368 17.4668 23.7077 17.4182C23.1908 16.5563 22.9071 15.423 22.8346 14.4358C22.8199 14.2319 22.8024 14.0582 22.7822 13.9145C22.78 13.8992 22.767 13.8876 22.7518 13.8875L20.422 13.8733C20.4213 13.8733 20.4206 13.8733 20.4199 13.8733C20.4011 13.8744 20.3865 13.8909 20.3876 13.91C20.3876 13.9107 20.3877 13.9113 20.3877 13.912C20.5269 15.0363 21.0075 15.9801 21.8297 16.7435C22.4301 17.3014 23.1353 17.6687 23.9453 17.8454C23.9463 17.8456 23.9472 17.8457 23.9481 17.8457C23.9554 17.8457 23.9614 17.8397 23.9614 17.8325C23.9614 17.8301 23.9607 17.8278 23.9596 17.8258Z" stroke="#8D7B8E" stroke-width="8.33"/>
<path d="M24.8915 17.4265C24.9095 17.4265 24.9258 17.4165 24.9405 17.3966C25.5657 16.5548 25.8935 15.521 26.0003 14.4774C26.0232 14.2562 26.0434 14.0692 26.061 13.9164C26.0612 13.9154 26.0612 13.9144 26.0612 13.9134C26.0612 13.8981 26.0486 13.8855 26.0333 13.8855C26.0332 13.8855 26.0332 13.8855 26.0331 13.8855C25.6229 13.8871 25.2443 13.8876 24.8974 13.887C24.5508 13.8863 24.1722 13.8842 23.7617 13.8806C23.7465 13.8808 23.7341 13.8933 23.7341 13.9085C23.7341 13.9095 23.7341 13.9105 23.7342 13.9115C23.7509 14.0644 23.7702 14.2513 23.792 14.4725C23.8944 15.5166 24.2178 16.5519 24.8391 17.3966C24.8538 17.4165 24.8713 17.4265 24.8915 17.4265Z" stroke="#8D7B8E" stroke-width="8.33"/>
<path d="M25.8288 17.8165C25.8274 17.8186 25.8267 17.8211 25.8267 17.8237C25.8267 17.831 25.8326 17.8369 25.8399 17.8369C25.8409 17.8369 25.842 17.8368 25.843 17.8366C26.6521 17.6621 27.3572 17.2974 27.9582 16.7425C28.781 15.983 29.2636 15.0423 29.406 13.9203C29.4061 13.9197 29.4061 13.919 29.4062 13.9184C29.4073 13.8994 29.3928 13.8828 29.374 13.8817C29.3732 13.8816 29.3725 13.8816 29.3717 13.8816L27.0459 13.8889C27.0308 13.889 27.0179 13.9003 27.0155 13.9154C26.9949 14.0591 26.977 14.2327 26.9616 14.4362C26.8866 15.4211 26.5995 16.5514 26.0811 17.4108C26.0521 17.4591 25.968 17.5944 25.8288 17.8165Z" stroke="#8D7B8E" stroke-width="8.33"/>
<path d="M34.5031 22.5107C34.9536 22.5048 35.5663 22.5024 36.3415 22.5033C36.5227 22.5037 36.6707 22.4976 36.7854 22.4852C37.0085 22.461 37.155 22.4378 37.2249 22.4156C38.1136 22.1311 38.6706 21.5384 38.8956 20.6376C38.9299 20.5014 38.9299 20.3769 38.9461 20.1951C38.9549 20.0955 38.9592 19.9836 38.9588 19.8595C38.9574 19.2495 38.9476 19.0001 38.9681 18.5729C38.9779 18.3697 38.9774 18.2147 38.9667 18.1079C38.9624 18.0673 38.9299 18.0349 38.8893 18.031C38.7142 18.014 38.5636 18.0078 38.4375 18.0124C38.4058 18.0137 38.0076 18.0114 37.243 18.0055C36.7351 18.0016 36.374 18.029 36.1597 18.0878C35.6508 18.2273 35.2322 18.508 34.9039 18.93C34.6359 19.2745 34.4468 19.7326 34.4296 20.1834C34.4105 20.6978 34.4752 21.2392 34.4683 21.6929C34.4631 22.0248 34.4608 22.2838 34.4615 22.47C34.4617 22.4924 34.4802 22.5107 34.5026 22.5107C34.5028 22.5107 34.503 22.5107 34.5031 22.5107Z" stroke="#8D7B8E" stroke-width="8.33"/>
<path d="M30.822 19.8406C30.8122 19.8504 30.8071 19.8631 30.8068 19.8788C30.7983 20.2629 30.7997 20.692 30.8112 21.1659C30.82 21.5388 30.9557 21.8381 31.2134 22.0954C31.4711 22.3526 31.7705 22.4878 32.1434 22.4962C32.6173 22.5066 33.0464 22.5073 33.4305 22.4981C33.4462 22.4978 33.4589 22.4927 33.4687 22.4829C33.4788 22.4731 33.4841 22.4602 33.4844 22.4442C33.4926 22.0601 33.4911 21.6312 33.48 21.1576C33.4712 20.7842 33.335 20.4854 33.0772 20.2281C32.8195 19.9709 32.5202 19.8352 32.1473 19.8273C31.6733 19.8169 31.2443 19.8161 30.8602 19.8249C30.8445 19.8256 30.8317 19.8308 30.822 19.8406Z" stroke="#8D7B8E" stroke-width="8.33"/>
<path d="M15.8209 24.177C15.9241 24.177 15.987 24.1739 16.0095 24.1677C16.1492 24.1275 16.2771 24.0393 16.3937 23.9232C17.2377 23.0847 17.9501 22.3697 18.5309 21.7781C18.8428 21.4606 18.975 21.0897 18.9273 20.6654C18.7974 19.5111 17.4451 18.976 16.5813 19.7904C16.483 19.8835 16.254 20.1118 15.8944 20.4753C15.8764 20.4936 15.8521 20.5028 15.8214 20.5028C15.7904 20.5028 15.766 20.4936 15.7484 20.4753C15.3888 20.1118 15.1598 19.8835 15.0615 19.7904C14.1977 18.9756 12.8454 19.5106 12.7151 20.6649C12.6674 21.0892 12.7995 21.4602 13.1114 21.7776C13.6922 22.3692 14.4044 23.0844 15.2481 23.9232C15.3648 24.0393 15.4926 24.1275 15.6328 24.1677C15.655 24.1739 15.7177 24.177 15.8209 24.177Z" stroke="#8D7B8E" stroke-width="8.33"/>
<path d="M11.3622 30.729C11.3482 30.7979 11.3412 30.885 11.3412 30.9902C11.3379 33.7604 11.3376 35.5365 11.3402 36.3185C11.3408 36.5671 11.3498 36.7843 11.3671 36.9701C11.3715 37.0177 11.4066 37.0573 11.4534 37.0671C11.5259 37.0825 11.6196 37.0889 11.7346 37.0862C12.1053 37.0771 12.3707 37.0725 12.5308 37.0725C21.8917 37.0729 28.0162 37.0727 30.9043 37.072C30.9997 37.072 31.0918 37.0314 31.1807 36.95C32.3801 35.8515 34.5916 33.8332 37.8152 30.8951C38.6037 30.1762 39.1312 29.6911 39.3978 29.4399C40.1959 28.6873 40.0068 27.4585 39.0279 26.9646C38.7914 26.8454 38.5358 26.7959 38.2611 26.8162C37.9243 26.841 37.6179 26.9771 37.3419 27.2243C35.4807 28.8921 33.7267 30.4618 32.0797 31.9333C31.7335 32.2427 31.5223 32.4329 31.4462 32.5041C31.1532 32.778 30.8543 33.0191 30.5863 33.1813C30.2401 33.39 29.864 33.4935 29.458 33.4919C26.3516 33.4778 24.6225 33.4736 24.2707 33.4792C23.9694 33.4841 23.4344 33.4929 23.0493 33.4733C23.0294 33.4725 23.0135 33.4559 23.0135 33.436V32.6002C23.0135 32.569 23.0392 32.5433 23.0703 32.5433C23.0705 32.5433 23.0707 32.5433 23.0708 32.5433C24.622 32.5453 26.7016 32.5445 29.3095 32.5409C29.5571 32.5406 29.7287 32.5241 29.8244 32.4914C30.1728 32.3714 30.4531 32.1308 30.6265 31.7868C31.0738 30.899 30.3771 29.9122 29.4359 29.8696C29.2409 29.8608 28.9998 29.8572 28.7127 29.8588C26.664 29.8699 24.8213 29.8699 23.1845 29.8588C23.1418 29.8585 23.1015 29.8401 23.0738 29.8084C22.7118 29.3962 22.2906 29.0488 21.8102 28.7662C20.743 28.1386 19.4897 27.8524 18.2521 28.0283C16.6102 28.2616 15.1531 29.1802 14.2795 30.5845C14.2278 30.6674 14.1398 30.7078 14.0154 30.7055C13.4193 30.6947 12.5461 30.6932 11.396 30.7011C11.3796 30.7014 11.3654 30.7131 11.3622 30.729Z" stroke="#8D7B8E" stroke-width="8.33"/>
<path d="M48.6482 24.4618C48.6482 37.7298 37.7303 48.6477 24.4623 48.6477C11.1943 48.6477 0.276367 37.7298 0.276367 24.4618C0.276367 11.1938 11.1943 0.275879 24.4623 0.275879C37.7303 0.275879 48.6482 11.1938 48.6482 24.4618ZM30.3844 13.4097C30.3844 10.3994 27.9072 7.92218 24.8968 7.92218C21.8864 7.92218 19.4093 10.3994 19.4093 13.4097C19.4093 16.4201 21.8864 18.8973 24.8968 18.8973C27.9072 18.8973 30.3844 16.4201 30.3844 13.4097ZM33.5623 19.3838C33.3405 19.1836 33.0765 19.0391 32.7705 18.9502C32.5823 18.896 32.3036 18.8705 31.9341 18.8738C31.3436 18.8793 30.6761 18.8784 29.9317 18.8709C29.9313 18.8708 29.931 18.8708 29.9307 18.8708C29.8956 18.8708 29.8667 18.8995 29.8665 18.9345C29.8567 19.744 29.8585 20.508 29.8719 21.2266C29.8817 21.7548 30.0522 22.2137 30.3834 22.6034C30.8577 23.1613 31.4685 23.443 32.2159 23.4486C32.4563 23.4502 32.8603 23.4499 33.428 23.4476C33.4638 23.4476 33.4932 23.477 33.4932 23.5127V26.2364C33.4932 26.2553 33.5087 26.2707 33.5275 26.2707H34.3604C34.3937 26.2707 34.4212 26.2433 34.4212 26.21V23.499C34.4212 23.4768 34.4391 23.4584 34.4613 23.4579C34.9716 23.4477 35.6074 23.4459 36.3688 23.4525C36.8297 23.4564 37.2363 23.4028 37.5888 23.2918C38.5056 23.003 39.1789 22.4056 39.6084 21.4995C39.7887 21.1193 39.847 20.7459 39.8852 20.3197C39.8992 20.1639 39.9058 20.0014 39.9048 19.8322C39.9009 19.0655 39.8992 18.2741 39.8999 17.4578C39.8999 17.3621 39.8955 17.2559 39.8867 17.1393C39.8848 17.1133 39.8646 17.0921 39.8387 17.0889C39.7181 17.0742 39.6228 17.0673 39.5525 17.0683C39.3311 17.0716 38.7057 17.0712 37.6765 17.0673C36.8775 17.064 36.3862 17.0782 36.2027 17.1099C34.9925 17.3177 33.9861 18.1815 33.6113 19.3706C33.6075 19.3832 33.5958 19.3919 33.5826 19.3919C33.5751 19.3919 33.5678 19.389 33.5623 19.3838ZM15.8178 25.1443C16.1074 25.1443 16.3975 25.0635 16.662 24.9263C16.7803 24.8649 16.9766 24.694 17.251 24.4138C17.707 23.9483 18.3145 23.3403 19.0736 22.5897C19.302 22.3639 19.4555 22.1848 19.5342 22.0522C20.3319 20.7121 19.7052 18.9786 18.1907 18.545C17.3377 18.301 16.5141 18.5352 15.8776 19.1232C15.8646 19.1353 15.8454 19.1413 15.8203 19.1413C15.7951 19.1413 15.776 19.1353 15.763 19.1232C15.127 18.5347 14.3034 18.3 13.4503 18.5431C11.9354 18.9757 11.3073 20.7087 12.1039 22.0492C12.1827 22.1818 12.336 22.3612 12.564 22.5872C13.3228 23.3385 13.9299 23.947 14.3852 24.4128C14.6596 24.6931 14.8557 24.8639 14.9736 24.9253C15.2382 25.063 15.5283 25.1443 15.8178 25.1443ZM31.7009 30.9925C31.7004 30.9926 31.6999 30.9926 31.6994 30.9926C31.6936 30.9926 31.6886 30.988 31.6882 30.9822C31.6088 30.0277 30.8753 29.2198 29.9733 28.9881C29.7829 28.9391 29.4059 28.9146 28.8425 28.9146C25.8988 28.9142 24.1939 28.9162 23.7278 28.9204C23.6425 28.9214 23.5731 28.9035 23.5196 28.8665C23.3466 28.7475 23.1888 28.5637 23.0409 28.4506C21.7709 27.4782 20.3624 27.0071 18.8154 27.0375C17.7702 27.0578 16.7628 27.3335 15.7934 27.8646C14.958 28.3222 14.2333 28.9998 13.6958 29.7313C13.6848 29.7461 13.6675 29.7548 13.6493 29.7548H11.4068C11.3731 29.7548 11.3455 29.7274 11.3455 29.6941V27.624C11.3455 27.5791 11.3088 27.5422 11.2642 27.5422H10.4783C10.4361 27.5422 10.4014 27.5771 10.4014 27.6196V40.0779C10.4014 40.1023 10.4215 40.1224 10.4459 40.1224H11.2676C11.3055 40.1224 11.3369 40.0917 11.3377 40.0538C11.3465 39.7216 11.3597 39.4796 11.3504 39.2209C11.3403 38.9534 11.3352 38.6186 11.3352 38.2165C11.3349 38.0875 11.3974 38.0231 11.5229 38.0234C11.5268 38.0238 11.9117 38.023 12.6777 38.021C14.3975 38.0174 19.9708 38.0171 29.3977 38.02C30.0608 38.02 30.7126 38.0167 31.3531 38.0102C31.3996 38.0096 31.4444 37.9928 31.4795 37.9627C31.6553 37.8134 31.8336 37.6561 32.0146 37.4909C32.8325 36.7445 33.686 35.9605 34.5751 35.139C34.6048 35.1116 34.6349 35.0842 34.6652 35.0567C35.4387 34.3593 36.2833 33.5913 37.1988 32.7524C37.6169 32.3693 38.0376 31.9855 38.461 31.601C38.7563 31.3325 38.9852 31.125 39.1479 30.9783C39.4017 30.7493 39.7115 30.4632 40.0774 30.1199C40.6864 29.5476 40.9549 28.6921 40.8015 27.868C40.6261 26.9248 39.9264 26.1919 38.9931 25.9337C38.7226 25.8587 38.291 25.8587 38.0592 25.8807C37.5712 25.9275 37.1038 26.151 36.6569 26.5515C34.3564 28.6133 32.8953 29.9205 32.2737 30.4731C32.0471 30.6747 31.8648 30.8436 31.7269 30.9798C31.7194 30.9873 31.7108 30.9915 31.701 30.9925L31.7009 30.9925Z" fill="#CD0F4F"/>
<path d="M30.3845 13.4099C30.3845 16.4203 27.9073 18.8975 24.8969 18.8975C21.8865 18.8975 19.4094 16.4203 19.4094 13.4099C19.4094 10.3995 21.8865 7.92236 24.8969 7.92236C27.9073 7.92236 30.3845 10.3995 30.3845 13.4099ZM24.0018 8.97921C24.0032 8.97706 24.0039 8.97455 24.0039 8.97198C24.0039 8.96472 23.9979 8.95875 23.9907 8.95875C23.9896 8.95875 23.9886 8.95888 23.9876 8.95912C23.171 9.13224 22.4587 9.49776 21.8508 10.0557C21.0186 10.819 20.5289 11.7663 20.3819 12.8974C20.3818 12.8989 20.3817 12.9004 20.3817 12.9018C20.3817 12.9208 20.3972 12.9365 20.4162 12.9366H22.7617C22.7772 12.9365 22.7904 12.925 22.7925 12.9097C22.8138 12.765 22.8324 12.5901 22.8484 12.3849C22.9273 11.3918 23.2203 10.2526 23.746 9.38784C23.7754 9.33917 23.8607 9.20296 24.0018 8.97921ZM25.7896 8.98167C25.9307 9.20541 26.0162 9.34162 26.0459 9.39029C26.5721 10.2541 26.8661 11.3928 26.9454 12.3859C26.9618 12.5907 26.9806 12.7655 27.0018 12.9102C27.004 12.9255 27.0172 12.937 27.0327 12.9371L29.3776 12.9352C29.3966 12.935 29.4122 12.9194 29.4122 12.9004C29.4122 12.8989 29.4121 12.8974 29.4119 12.896C29.2639 11.7651 28.7737 10.8185 27.9411 10.0562C27.3329 9.4989 26.6204 9.13404 25.8038 8.96157C25.8028 8.96132 25.8018 8.96119 25.8007 8.96119C25.7935 8.96119 25.7875 8.96717 25.7875 8.97442C25.7875 8.977 25.7882 8.97951 25.7896 8.98167ZM24.8901 9.41234C24.8698 9.41234 24.8525 9.4223 24.8381 9.44222C24.2203 10.2825 23.8989 11.3124 23.7975 12.3511C23.7756 12.5713 23.7563 12.7575 23.7396 12.9097C23.7395 12.9107 23.7395 12.9116 23.7395 12.9126C23.7395 12.9277 23.7519 12.9401 23.7669 12.9401C23.767 12.9401 23.767 12.9401 23.7671 12.9401C24.1754 12.9365 24.552 12.9342 24.8969 12.9332C25.2422 12.9325 25.6188 12.9329 26.0268 12.9342C26.027 12.9342 26.0272 12.9342 26.0274 12.9342C26.0425 12.9342 26.0549 12.9218 26.0549 12.9067C26.0549 12.9058 26.0548 12.9048 26.0547 12.9038C26.0371 12.7516 26.0168 12.5656 25.994 12.3457C25.8871 11.3075 25.5608 10.2791 24.9391 9.44222C24.9244 9.4223 24.908 9.41234 24.8901 9.41234ZM23.9596 17.8259C23.8208 17.6028 23.7369 17.467 23.7078 17.4183C23.1909 16.5565 22.9072 15.4232 22.8347 14.4359C22.82 14.2321 22.8025 14.0583 22.7823 13.9146C22.7801 13.8993 22.7671 13.8878 22.7519 13.8876L20.4221 13.8734C20.4214 13.8734 20.4207 13.8734 20.4199 13.8735C20.4012 13.8745 20.3866 13.8911 20.3876 13.9101C20.3877 13.9108 20.3877 13.9115 20.3878 13.9121C20.527 15.0364 21.0076 15.9803 21.8298 16.7436C22.4301 17.3015 23.1354 17.6688 23.9454 17.8455C23.9463 17.8457 23.9473 17.8458 23.9482 17.8458C23.9555 17.8458 23.9614 17.8399 23.9614 17.8326C23.9614 17.8303 23.9608 17.828 23.9596 17.8259ZM24.8915 17.4266C24.9095 17.4266 24.9258 17.4167 24.9405 17.3967C25.5657 16.555 25.8935 15.5212 26.0003 14.4776C26.0232 14.2564 26.0434 14.0694 26.0611 13.9165C26.0612 13.9156 26.0612 13.9146 26.0612 13.9136C26.0612 13.8983 26.0486 13.8857 26.0333 13.8857C26.0333 13.8857 26.0332 13.8857 26.0331 13.8857C25.6229 13.8873 25.2443 13.8878 24.8974 13.8871C24.5508 13.8865 24.1723 13.8844 23.7617 13.8808C23.7465 13.881 23.7341 13.8935 23.7341 13.9087C23.7341 13.9097 23.7341 13.9107 23.7343 13.9117C23.7509 14.0645 23.7702 14.2515 23.7921 14.4727C23.8945 15.5168 24.2178 16.552 24.8391 17.3967C24.8538 17.4167 24.8713 17.4266 24.8915 17.4266ZM25.8288 17.8166C25.8274 17.8188 25.8267 17.8213 25.8267 17.8239C25.8267 17.8311 25.8327 17.8371 25.8399 17.8371C25.841 17.8371 25.842 17.837 25.843 17.8367C26.6521 17.6623 27.3572 17.2976 27.9582 16.7426C28.781 15.9832 29.2636 15.0425 29.406 13.9205C29.4061 13.9198 29.4062 13.9192 29.4062 13.9186C29.4073 13.8995 29.3928 13.8829 29.374 13.8818C29.3733 13.8818 29.3725 13.8817 29.3717 13.8818L27.0459 13.8891C27.0308 13.8892 27.0179 13.9005 27.0155 13.9156C26.9949 14.0593 26.977 14.2329 26.9616 14.4364C26.8867 15.4212 26.5995 16.5516 26.0812 17.4109C26.0521 17.4593 25.968 17.5945 25.8288 17.8166Z" fill="white"/>
<path d="M24.0017 8.97896C23.8606 9.20271 23.7753 9.33891 23.7459 9.38758C23.2202 10.2524 22.9272 11.3915 22.8483 12.3847C22.8323 12.5898 22.8137 12.7647 22.7925 12.9094C22.7903 12.9248 22.7771 12.9363 22.7616 12.9364H20.4162C20.3972 12.9363 20.3816 12.9206 20.3816 12.9016C20.3816 12.9001 20.3817 12.8986 20.3819 12.8972C20.5289 11.766 21.0185 10.8188 21.8508 10.0554C22.4587 9.49751 23.1709 9.13199 23.9875 8.95887C23.9885 8.95863 23.9896 8.9585 23.9906 8.9585C23.9979 8.9585 24.0039 8.96447 24.0039 8.97173C24.0039 8.9743 24.0031 8.9768 24.0017 8.97896Z" fill="#CD0F4F"/>
<path d="M25.7896 8.98141C25.7882 8.97926 25.7875 8.97674 25.7875 8.97417C25.7875 8.96691 25.7934 8.96094 25.8007 8.96094C25.8018 8.96094 25.8028 8.96107 25.8038 8.96131C26.6204 9.13378 27.3328 9.49864 27.9411 10.0559C28.7737 10.8183 29.2639 11.7649 29.4119 12.8957C29.4121 12.8972 29.4122 12.8986 29.4122 12.9001C29.4122 12.9191 29.3966 12.9348 29.3776 12.9349L27.0327 12.9369C27.0172 12.9368 27.004 12.9252 27.0018 12.9099C26.9806 12.7652 26.9618 12.5905 26.9454 12.3857C26.8661 11.3925 26.5721 10.2538 26.0459 9.39004C26.0162 9.34137 25.9307 9.20515 25.7896 8.98141Z" fill="#CD0F4F"/>
<path d="M24.8901 9.41211C24.908 9.41211 24.9244 9.42207 24.9391 9.44199C25.5608 10.2788 25.8872 11.3073 25.994 12.3455C26.0168 12.5653 26.0371 12.7514 26.0547 12.9036C26.0548 12.9046 26.0549 12.9055 26.0549 12.9065C26.0549 12.9216 26.0425 12.9339 26.0275 12.9339C26.0272 12.9339 26.027 12.9339 26.0268 12.9339C25.6188 12.9326 25.2422 12.9323 24.8969 12.933C24.552 12.9339 24.1754 12.9362 23.7671 12.9398C23.767 12.9398 23.767 12.9398 23.7669 12.9398C23.7519 12.9398 23.7395 12.9274 23.7395 12.9124C23.7395 12.9114 23.7395 12.9104 23.7397 12.9094C23.7563 12.7572 23.7756 12.5711 23.7975 12.3509C23.8989 11.3122 24.2203 10.2823 24.8382 9.44199C24.8525 9.42207 24.8698 9.41211 24.8901 9.41211Z" fill="#CD0F4F"/>
<path d="M23.9596 17.8258C23.9607 17.8278 23.9614 17.8301 23.9614 17.8325C23.9614 17.8397 23.9554 17.8457 23.9481 17.8457C23.9472 17.8457 23.9463 17.8456 23.9453 17.8454C23.1353 17.6687 22.4301 17.3014 21.8297 16.7435C21.0075 15.9801 20.5269 15.0363 20.3877 13.912C20.3877 13.9113 20.3876 13.9107 20.3876 13.91C20.3865 13.8909 20.4011 13.8744 20.4199 13.8733C20.4206 13.8733 20.4213 13.8733 20.422 13.8733L22.7518 13.8875C22.767 13.8876 22.78 13.8992 22.7822 13.9145C22.8024 14.0582 22.8199 14.2319 22.8346 14.4358C22.9071 15.423 23.1908 16.5563 23.7077 17.4182C23.7368 17.4668 23.8207 17.6027 23.9596 17.8258Z" fill="#CD0F4F"/>
<path d="M24.8974 13.887C25.2443 13.8876 25.6229 13.8871 26.0331 13.8855C26.0332 13.8855 26.0332 13.8855 26.0333 13.8855C26.0486 13.8855 26.0612 13.8981 26.0612 13.9134C26.0612 13.9144 26.0612 13.9154 26.061 13.9164C26.0434 14.0692 26.0232 14.2562 26.0003 14.4774C25.8935 15.521 25.5657 16.5548 24.9405 17.3966C24.9258 17.4165 24.9095 17.4265 24.8915 17.4265C24.8713 17.4265 24.8538 17.4165 24.8391 17.3966C24.2178 16.5519 23.8944 15.5166 23.792 14.4725C23.7702 14.2513 23.7509 14.0644 23.7342 13.9115C23.7341 13.9105 23.7341 13.9095 23.7341 13.9085C23.7341 13.8933 23.7465 13.8808 23.7617 13.8806C24.1722 13.8842 24.5508 13.8863 24.8974 13.887Z" fill="#CD0F4F"/>
<path d="M25.8288 17.8165C25.968 17.5944 26.0521 17.4591 26.0811 17.4108C26.5995 16.5514 26.8866 15.4211 26.9616 14.4362C26.977 14.2327 26.9949 14.0591 27.0155 13.9154C27.0179 13.9003 27.0308 13.889 27.0459 13.8889L29.3717 13.8816C29.3725 13.8816 29.3732 13.8816 29.374 13.8817C29.3928 13.8828 29.4073 13.8994 29.4062 13.9184C29.4061 13.919 29.4061 13.9197 29.406 13.9203C29.2636 15.0423 28.781 15.983 27.9582 16.7425C27.3572 17.2974 26.6521 17.6621 25.843 17.8366C25.842 17.8368 25.8409 17.8369 25.8399 17.8369C25.8326 17.8369 25.8267 17.831 25.8267 17.8237C25.8267 17.8211 25.8274 17.8186 25.8288 17.8165Z" fill="#CD0F4F"/>
<path d="M33.5624 19.3839C33.5679 19.389 33.5752 19.3919 33.5828 19.3919C33.5959 19.3919 33.6076 19.3832 33.6114 19.3707C33.9862 18.1815 34.9926 17.3177 36.2028 17.11C36.3864 17.0783 36.8776 17.0641 37.6766 17.0674C38.7058 17.0713 39.3312 17.0716 39.5527 17.0683C39.6229 17.0674 39.7183 17.0742 39.8388 17.0889C39.8647 17.0921 39.8849 17.1133 39.8868 17.1394C39.8956 17.256 39.9 17.3621 39.9 17.4578C39.8994 18.2741 39.901 19.0656 39.9049 19.8322C39.9059 20.0014 39.8994 20.1639 39.8853 20.3197C39.8471 20.746 39.7888 21.1193 39.6085 21.4995C39.179 22.4056 38.5058 23.0031 37.5889 23.2918C37.2364 23.4029 36.8298 23.4564 36.3689 23.4525C35.6075 23.446 34.9717 23.4478 34.4615 23.4579C34.4393 23.4584 34.4213 23.4769 34.4213 23.4991V26.21C34.4213 26.2433 34.3939 26.2708 34.3605 26.2708H33.5276C33.5088 26.2708 33.4933 26.2553 33.4933 26.2365V23.5128C33.4933 23.477 33.4639 23.4476 33.4281 23.4476C32.8604 23.4499 32.4564 23.4502 32.216 23.4486C31.4686 23.443 30.8578 23.1613 30.3835 22.6034C30.0523 22.2137 29.8818 21.7548 29.872 21.2266C29.8586 20.508 29.8568 19.744 29.8666 18.9346C29.8669 18.8996 29.8958 18.8709 29.9308 18.8709C29.9311 18.8709 29.9315 18.8709 29.9318 18.8709C30.6762 18.8784 31.3437 18.8794 31.9343 18.8738C32.3037 18.8706 32.5825 18.8961 32.7706 18.9503C33.0767 19.0391 33.3406 19.1837 33.5624 19.3839ZM34.5031 22.5108C34.9536 22.5049 35.5663 22.5025 36.3415 22.5035C36.5227 22.5038 36.6707 22.4977 36.7854 22.4853C37.0085 22.4612 37.155 22.438 37.2249 22.4158C38.1136 22.1313 38.6706 21.5386 38.8956 20.6377C38.9299 20.5015 38.9299 20.377 38.9461 20.1953C38.9549 20.0956 38.9592 19.9838 38.9588 19.8596C38.9574 19.2496 38.9476 19.0002 38.9681 18.573C38.9779 18.3698 38.9774 18.2148 38.9667 18.108C38.9624 18.0674 38.9299 18.0351 38.8893 18.0311C38.7142 18.0141 38.5636 18.0079 38.4375 18.0125C38.4058 18.0138 38.0076 18.0115 37.243 18.0056C36.7351 18.0017 36.374 18.0291 36.1597 18.0879C35.6508 18.2274 35.2322 18.5082 34.9039 18.9302C34.6359 19.2746 34.4468 19.7327 34.4296 20.1835C34.4105 20.698 34.4752 21.2394 34.4683 21.6931C34.4631 22.0249 34.4608 22.284 34.4615 22.4701C34.4617 22.4925 34.4802 22.5108 34.5026 22.5108C34.5028 22.5108 34.503 22.5108 34.5031 22.5108ZM30.822 19.8405C30.8123 19.8503 30.8072 19.8631 30.8069 19.8787C30.7984 20.2629 30.7998 20.6919 30.8113 21.1659C30.8201 21.5387 30.9558 21.8381 31.2135 22.0953C31.4712 22.3526 31.7706 22.4878 32.1435 22.4961C32.6174 22.5066 33.0465 22.5072 33.4306 22.4981C33.4463 22.4977 33.459 22.4927 33.4688 22.4829C33.4789 22.4731 33.4842 22.4602 33.4845 22.4442C33.4927 22.0601 33.4912 21.6312 33.4801 21.1575C33.4713 20.7842 33.3351 20.4853 33.0773 20.2281C32.8196 19.9709 32.5203 19.8351 32.1474 19.8273C31.6734 19.8168 31.2444 19.816 30.8603 19.8249C30.8446 19.8255 30.8318 19.8307 30.822 19.8405Z" fill="white"/>
<path d="M34.5031 22.5107C34.503 22.5107 34.5028 22.5107 34.5026 22.5107C34.4802 22.5107 34.4617 22.4924 34.4615 22.47C34.4608 22.2838 34.4631 22.0248 34.4683 21.6929C34.4752 21.2392 34.4105 20.6978 34.4296 20.1834C34.4468 19.7326 34.6359 19.2745 34.9039 18.93C35.2322 18.508 35.6508 18.2273 36.1597 18.0878C36.374 18.029 36.7351 18.0016 37.243 18.0055C38.0076 18.0114 38.4058 18.0137 38.4375 18.0124C38.5636 18.0078 38.7142 18.014 38.8893 18.031C38.9299 18.0349 38.9624 18.0673 38.9667 18.1079C38.9774 18.2147 38.9779 18.3697 38.9681 18.5729C38.9476 19.0001 38.9574 19.2495 38.9588 19.8595C38.9592 19.9836 38.9549 20.0955 38.9461 20.1951C38.9299 20.3769 38.9299 20.5014 38.8956 20.6376C38.6706 21.5384 38.1136 22.1311 37.2249 22.4156C37.155 22.4378 37.0085 22.461 36.7854 22.4852C36.6707 22.4976 36.5227 22.5037 36.3415 22.5033C35.5663 22.5024 34.9536 22.5048 34.5031 22.5107Z" fill="#CD0F4F"/>
<path d="M15.8205 19.1414C15.8456 19.1414 15.8647 19.1353 15.8778 19.1232C16.5142 18.5353 17.3379 18.3011 18.1909 18.5451C19.7054 18.9787 20.332 20.7122 19.5343 22.0522C19.4556 22.1848 19.3021 22.364 19.0738 22.5897C18.3147 23.3403 17.7071 23.9484 17.2511 24.4138C16.9768 24.6941 16.7804 24.8649 16.6622 24.9263C16.3976 25.0635 16.1076 25.1444 15.818 25.1444C15.5284 25.1444 15.2384 25.063 14.9738 24.9253C14.8559 24.8639 14.6597 24.6931 14.3854 24.4128C13.93 23.947 13.323 23.3385 12.5642 22.5872C12.3362 22.3612 12.1828 22.1819 12.1041 22.0493C11.3074 20.7087 11.9356 18.9757 13.4505 18.5431C14.3035 18.3001 15.1272 18.5348 15.7631 19.1232C15.7762 19.1353 15.7953 19.1414 15.8205 19.1414ZM15.8209 24.1772C15.9242 24.1772 15.987 24.1741 16.0096 24.1679C16.1492 24.1277 16.2771 24.0395 16.3937 23.9234C17.2377 23.0849 17.9501 22.3699 18.5309 21.7783C18.8429 21.4608 18.975 21.0899 18.9273 20.6656C18.7975 19.5113 17.4452 18.9762 16.5814 19.7906C16.483 19.8836 16.2541 20.112 15.8944 20.4755C15.8765 20.4938 15.8521 20.503 15.8214 20.503C15.7904 20.503 15.7661 20.4938 15.7484 20.4755C15.3888 20.112 15.1598 19.8836 15.0615 19.7906C14.1977 18.9757 12.8454 19.5108 12.7151 20.6651C12.6674 21.0894 12.7995 21.4603 13.1115 21.7778C13.6922 22.3694 14.4045 23.0846 15.2482 23.9234C15.3648 24.0395 15.4927 24.1277 15.6328 24.1679C15.655 24.1741 15.7177 24.1772 15.8209 24.1772Z" fill="white"/>
<path d="M15.8214 20.5028C15.8521 20.5028 15.8764 20.4936 15.8944 20.4753C16.254 20.1118 16.483 19.8835 16.5813 19.7904C17.4451 18.976 18.7974 19.5111 18.9273 20.6654C18.975 21.0897 18.8428 21.4606 18.5309 21.7781C17.9501 22.3697 17.2377 23.0847 16.3937 23.9232C16.2771 24.0393 16.1492 24.1275 16.0095 24.1677C15.987 24.1739 15.9241 24.177 15.8209 24.177C15.7177 24.177 15.655 24.1739 15.6328 24.1677C15.4926 24.1275 15.3648 24.0393 15.2481 23.9232C14.4044 23.0844 13.6922 22.3692 13.1114 21.7776C12.7995 21.4602 12.6674 21.0892 12.7151 20.6649C12.8454 19.5106 14.1977 18.9756 15.0615 19.7904C15.1598 19.8835 15.3888 20.1118 15.7484 20.4753C15.766 20.4936 15.7904 20.5028 15.8214 20.5028Z" fill="#CD0F4F"/>
<path d="M33.0773 20.2281C33.335 20.4854 33.4712 20.7842 33.4801 21.1576C33.4912 21.6312 33.4926 22.0601 33.4845 22.4442C33.4841 22.4602 33.4789 22.4731 33.4688 22.4829C33.459 22.4927 33.4462 22.4978 33.4306 22.4981C33.0464 22.5073 32.6174 22.5066 32.1434 22.4962C31.7706 22.4878 31.4712 22.3526 31.2135 22.0954C30.9558 21.8381 30.82 21.5388 30.8112 21.1659C30.7998 20.692 30.7983 20.2629 30.8068 19.8788C30.8071 19.8631 30.8122 19.8504 30.822 19.8406C30.8318 19.8308 30.8446 19.8256 30.8602 19.8249C31.2444 19.8161 31.6734 19.8169 32.1474 19.8273C32.5202 19.8352 32.8196 19.9709 33.0773 20.2281Z" fill="#CD0F4F"/>
<path d="M31.7011 30.9925C31.7109 30.9915 31.7195 30.9872 31.727 30.9797C31.8649 30.8435 32.0471 30.6746 32.2738 30.4731C32.8954 29.9204 34.3565 28.6132 36.657 26.5514C37.1038 26.151 37.5713 25.9274 38.0593 25.8807C38.291 25.8587 38.7227 25.8587 38.9931 25.9336C39.9265 26.1918 40.6262 26.9248 40.8016 27.868C40.9549 28.6921 40.6864 29.5476 40.0774 30.1198C39.7116 30.4631 39.4018 30.7493 39.148 30.9783C38.9853 31.1249 38.7563 31.3325 38.461 31.601C38.0377 31.9854 37.617 32.3692 37.1989 32.7524C36.2833 33.5912 35.4388 34.3593 34.6653 35.0567C34.6349 35.0841 34.6049 35.1116 34.5752 35.139C33.6861 35.9605 32.8325 36.7444 32.0146 37.4908C31.8337 37.6561 31.6553 37.8134 31.4796 37.9626C31.4445 37.9927 31.3997 38.0095 31.3532 38.0102C30.7126 38.0167 30.0608 38.02 29.3978 38.02C19.9709 38.017 14.3977 38.0174 12.6778 38.0209C11.9118 38.0229 11.5269 38.0237 11.5229 38.0234C11.3975 38.0231 11.335 38.0874 11.3353 38.2164C11.3353 38.6185 11.3404 38.9533 11.3505 39.2209C11.3598 39.4796 11.3466 39.7216 11.3377 40.0538C11.3369 40.0917 11.3056 40.1224 11.2677 40.1224H10.446C10.4215 40.1224 10.4014 40.1023 10.4014 40.0778V27.6195C10.4014 27.5771 10.4362 27.5421 10.4783 27.5421H11.2642C11.3089 27.5421 11.3456 27.5791 11.3456 27.624V29.694C11.3456 29.7274 11.3732 29.7548 11.4068 29.7548H13.6494C13.6676 29.7548 13.6849 29.7461 13.6959 29.7313C14.2334 28.9998 14.9581 28.3221 15.7934 27.8645C16.7629 27.3334 17.7703 27.0577 18.8155 27.0375C20.3625 27.0071 21.771 27.4781 23.0409 28.4505C23.1889 28.5637 23.3467 28.7474 23.5196 28.8665C23.5732 28.9034 23.6426 28.9214 23.7279 28.9204C24.194 28.9161 25.8989 28.9142 28.8426 28.9145C29.406 28.9145 29.783 28.939 29.9734 28.988C30.8754 29.2198 31.6089 30.0277 31.6883 30.9821C31.6887 30.988 31.6937 30.9925 31.6995 30.9925C31.7 30.9925 31.7005 30.9925 31.701 30.9924L31.7011 30.9925ZM11.3624 30.7289C11.3483 30.7978 11.3413 30.8848 11.3413 30.99C11.338 33.7602 11.3377 35.5364 11.3403 36.3183C11.341 36.5669 11.3499 36.7841 11.3673 36.97C11.3716 37.0176 11.4067 37.0571 11.4535 37.067C11.526 37.0823 11.6197 37.0887 11.7347 37.0861C12.1055 37.077 12.3709 37.0724 12.5309 37.0724C21.8918 37.0727 28.0163 37.0725 30.9044 37.0719C30.9998 37.0719 31.0919 37.0312 31.1808 36.9499C32.3802 35.8514 34.5917 33.8331 37.8153 30.8949C38.6038 30.176 39.1314 29.6909 39.3979 29.4398C40.1961 28.6872 40.0069 27.4584 39.028 26.9645C38.7915 26.8453 38.5359 26.7958 38.2612 26.816C37.9244 26.8408 37.6181 26.9769 37.342 27.2242C35.4808 28.892 33.7268 30.4617 32.0799 31.9332C31.7336 32.2425 31.5224 32.4328 31.4463 32.504C31.1533 32.7779 30.8545 33.0189 30.5865 33.1811C30.2402 33.3898 29.8641 33.4934 29.4581 33.4918C26.3517 33.4777 24.6227 33.4735 24.2709 33.479C23.9695 33.4839 23.4345 33.4927 23.0494 33.4731C23.0295 33.4723 23.0136 33.4558 23.0136 33.4359V32.6C23.0136 32.5688 23.0393 32.5432 23.0705 32.5432C23.0706 32.5432 23.0708 32.5432 23.0709 32.5432C24.6222 32.5451 26.7017 32.5443 29.3096 32.5407C29.5572 32.5404 29.7289 32.5239 29.8246 32.4912C30.1729 32.3712 30.4532 32.1306 30.6266 31.7867C31.074 30.8989 30.3772 29.9121 29.436 29.8695C29.241 29.8606 29 29.857 28.7128 29.8587C26.6642 29.8698 24.8214 29.8698 23.1846 29.8587C23.1419 29.8584 23.1016 29.84 23.0739 29.8082C22.712 29.396 22.2908 29.0486 21.8103 28.7661C20.7431 28.1384 19.4898 27.8523 18.2522 28.0282C16.6103 28.2614 15.1532 29.1801 14.2796 30.5843C14.228 30.6673 14.1399 30.7076 14.0155 30.7053C13.4194 30.6946 12.5463 30.6931 11.3962 30.7009C11.3797 30.7013 11.3656 30.7129 11.3624 30.7289Z" fill="white"/>
<path d="M11.396 30.7008C12.5461 30.693 13.4193 30.6945 14.0154 30.7052C14.1398 30.7075 14.2278 30.6672 14.2795 30.5842C15.1531 29.18 16.6102 28.2613 18.2521 28.0281C19.4897 27.8522 20.743 28.1383 21.8102 28.766C22.2906 29.0485 22.7118 29.3959 23.0738 29.8081C23.1015 29.8399 23.1418 29.8583 23.1845 29.8586C24.8213 29.8697 26.664 29.8697 28.7127 29.8586C28.9998 29.857 29.2409 29.8606 29.4359 29.8694C30.3771 29.912 31.0738 30.8988 30.6265 31.7866C30.4531 32.1305 30.1728 32.3711 29.8244 32.4911C29.7287 32.5238 29.5571 32.5403 29.3095 32.5406C26.7016 32.5442 24.622 32.5451 23.0708 32.5431C23.0707 32.5431 23.0705 32.5431 23.0703 32.5431C23.0392 32.5431 23.0135 32.5687 23.0135 32.5999V33.4358C23.0135 33.4557 23.0294 33.4723 23.0493 33.473C23.4344 33.4926 23.9694 33.4838 24.2707 33.4789C24.6225 33.4734 26.3516 33.4776 29.458 33.4917C29.864 33.4933 30.2401 33.3897 30.5863 33.181C30.8543 33.0188 31.1532 32.7778 31.4462 32.5039C31.5223 32.4327 31.7335 32.2424 32.0797 31.9331C33.7267 30.4616 35.4807 28.8919 37.3419 27.2241C37.6179 26.9768 37.9243 26.8408 38.2611 26.8159C38.5358 26.7957 38.7914 26.8452 39.0279 26.9644C40.0068 27.4583 40.1959 28.6871 39.3978 29.4397C39.1312 29.6909 38.6037 30.1759 37.8152 30.8949C34.5916 33.833 32.3801 35.8513 31.1807 36.9498C31.0918 37.0311 30.9997 37.0718 30.9043 37.0718C28.0162 37.0725 21.8917 37.0726 12.5308 37.0723C12.3707 37.0723 12.1053 37.0769 11.7346 37.086C11.6196 37.0886 11.5259 37.0823 11.4534 37.0669C11.4066 37.057 11.3715 37.0175 11.3671 36.9699C11.3498 36.784 11.3408 36.5668 11.3402 36.3182C11.3376 35.5363 11.3379 33.7602 11.3412 30.9899C11.3412 30.8847 11.3482 30.7977 11.3622 30.7288C11.3654 30.7128 11.3796 30.7012 11.396 30.7008Z" fill="#CD0F4F"/>
</g>
<defs>
<clipPath id="clip0_1380_1532">
<rect width="49" height="49" rx="24.5" fill="white"/>
</clipPath>
</defs>
</svg>
