<svg width="47" height="48" viewBox="0 0 47 48" fill="none" xmlns="http://www.w3.org/2000/svg">
<path fill-rule="evenodd" clip-rule="evenodd" d="M18 1.31982H44.85C45.278 1.31982 45.634 1.66282 45.65 2.08982V45.8698C45.639 46.2958 45.286 46.6398 44.86 46.6398H19.77C19.883 46.3948 19.941 46.1288 19.94 45.8598V45.0998H44.1V2.85982H18.81V27.3398C18.676 27.3068 18.538 27.2898 18.4 27.2898H17.24V2.08982C17.245 1.67282 17.583 1.33082 18 1.31982ZM25.69 9.57982V5.35982H21.38V9.57982H25.69ZM21.18 4.39982H25.91C25.917 4.39982 25.923 4.39982 25.93 4.39982C26.349 4.39982 26.695 4.74082 26.7 5.15982V9.76982C26.695 10.1938 26.344 10.5398 25.92 10.5398C25.917 10.5398 25.913 10.5398 25.91 10.5398H21.18C20.754 10.5398 20.401 10.1958 20.39 9.76982V5.15982C20.401 4.73582 20.756 4.39382 21.18 4.39982ZM33.61 9.57982V5.35982H29.27V9.57982H33.61ZM29.07 4.39982H33.8C33.807 4.39982 33.813 4.39982 33.82 4.39982C34.239 4.39982 34.585 4.74082 34.59 5.15982V9.76982C34.585 10.1938 34.234 10.5398 33.81 10.5398C33.807 10.5398 33.803 10.5398 33.8 10.5398H29.07C28.644 10.5398 28.291 10.1958 28.28 9.76982V5.15982C28.291 4.73582 28.646 4.39382 29.07 4.39982ZM41.5 5.39982V9.57982H37.16V5.35982L41.5 5.39982ZM41.69 4.39982H37C36.576 4.39382 36.221 4.73582 36.21 5.15982V9.76982C36.221 10.1958 36.574 10.5398 37 10.5398H41.73C41.733 10.5398 41.737 10.5398 41.74 10.5398C42.164 10.5398 42.515 10.1938 42.52 9.76982V5.15982C42.516 4.74082 42.17 4.39782 41.75 4.39782C41.73 4.39782 41.71 4.39782 41.69 4.39982ZM25.69 17.2598V12.9998H21.38V17.2198L25.69 17.2598ZM21.15 12.0798H25.88C25.887 12.0798 25.893 12.0798 25.9 12.0798C26.319 12.0798 26.665 12.4208 26.67 12.8398V17.4498C26.665 17.8738 26.314 18.2198 25.89 18.2198C25.887 18.2198 25.883 18.2198 25.88 18.2198H21.18C20.754 18.2198 20.401 17.8758 20.39 17.4498V12.8398C20.401 12.4158 20.756 12.0738 21.18 12.0798H21.15ZM33.58 13.0798V17.2998H29.27V12.9998L33.58 13.0798ZM33.8 12.0798H29.07C28.646 12.0738 28.291 12.4158 28.28 12.8398V17.4498C28.291 17.8758 28.644 18.2198 29.07 18.2198H33.8C33.803 18.2198 33.807 18.2198 33.81 18.2198C34.234 18.2198 34.585 17.8738 34.59 17.4498V12.8398C34.585 12.4208 34.239 12.0798 33.82 12.0798C33.813 12.0798 33.807 12.0798 33.8 12.0798ZM41.47 17.2598V12.9998H37.16V17.2198L41.47 17.2598ZM37 12.0798H41.73C41.737 12.0798 41.743 12.0798 41.75 12.0798C42.169 12.0798 42.515 12.4208 42.52 12.8398V17.4498C42.515 17.8738 42.164 18.2198 41.74 18.2198C41.737 18.2198 41.733 18.2198 41.73 18.2198H37C36.574 18.2198 36.221 17.8758 36.21 17.4498V12.8398C36.221 12.4158 36.576 12.0738 37 12.0798ZM25.72 20.7198V24.9398H21.38V20.7198H25.72ZM25.91 19.7198H21.18C20.756 19.7138 20.401 20.0558 20.39 20.4798V25.0898C20.395 25.5138 20.746 25.8598 21.17 25.8598C21.173 25.8598 21.177 25.8598 21.18 25.8598H25.91C25.917 25.8598 25.923 25.8598 25.93 25.8598C26.352 25.8598 26.7 25.5128 26.7 25.0898V20.5198C26.695 20.1008 26.349 19.7598 25.93 19.7598C25.923 19.7598 25.917 19.7598 25.91 19.7598V19.7198ZM33.61 24.8998V20.7198H29.27V24.9398L33.61 24.8998ZM29.07 19.7198H33.8C33.807 19.7198 33.813 19.7198 33.82 19.7198C34.239 19.7198 34.585 20.0608 34.59 20.4798V25.0898C34.59 25.5128 34.242 25.8598 33.82 25.8598C33.813 25.8598 33.807 25.8598 33.8 25.8598H29.07C29.067 25.8598 29.063 25.8598 29.06 25.8598C28.636 25.8598 28.285 25.5138 28.28 25.0898V20.5198C28.291 20.0958 28.646 19.7538 29.07 19.7598V19.7198ZM41.5 20.7198V24.9398H37.16V20.7198H41.5ZM41.69 19.7198H37C36.576 19.7138 36.221 20.0558 36.21 20.4798V25.0898C36.215 25.5138 36.566 25.8598 36.99 25.8598C36.993 25.8598 36.997 25.8598 37 25.8598H41.73C41.737 25.8598 41.743 25.8598 41.75 25.8598C42.172 25.8598 42.52 25.5128 42.52 25.0898V20.5198C42.516 20.1008 42.17 19.7578 41.75 19.7578C41.73 19.7578 41.71 19.7578 41.69 19.7598V19.7198ZM25.69 32.5798V28.3998H21.38V32.6198L25.69 32.5798ZM21.15 27.3998H25.88C25.887 27.3998 25.893 27.3998 25.9 27.3998C26.319 27.3998 26.665 27.7408 26.67 28.1598V32.7698C26.67 33.1928 26.322 33.5398 25.9 33.5398C25.893 33.5398 25.887 33.5398 25.88 33.5398H21.18C21.177 33.5398 21.173 33.5398 21.17 33.5398C20.746 33.5398 20.395 33.1938 20.39 32.7698V28.1998C20.401 27.7758 20.756 27.4338 21.18 27.4398L21.15 27.3998ZM33.58 28.3998V32.6198H29.27V28.3998H33.58ZM33.77 27.3998H29.07C28.646 27.3938 28.291 27.7358 28.28 28.1598V32.7698C28.285 33.1938 28.636 33.5398 29.06 33.5398C29.063 33.5398 29.067 33.5398 29.07 33.5398H33.8C33.807 33.5398 33.813 33.5398 33.82 33.5398C34.242 33.5398 34.59 33.1928 34.59 32.7698V28.1998C34.585 27.7808 34.239 27.4398 33.82 27.4398C33.813 27.4398 33.807 27.4398 33.8 27.4398L33.77 27.3998ZM41.47 32.5798V28.3998H37.16V32.6198L41.47 32.5798ZM37 27.4398H41.73C41.737 27.4398 41.743 27.4398 41.75 27.4398C42.169 27.4398 42.515 27.7808 42.52 28.1998V32.8098C42.52 33.2328 42.172 33.5798 41.75 33.5798C41.743 33.5798 41.737 33.5798 41.73 33.5798H37C36.997 33.5798 36.993 33.5798 36.99 33.5798C36.566 33.5798 36.215 33.2338 36.21 32.8098V28.1998C36.221 27.7758 36.576 27.4338 37 27.4398ZM21.19 37.0798C21.377 36.6088 21.249 36.0668 20.87 35.7298L19.19 34.2398V29.2398C19.187 28.9668 19.038 28.7148 18.8 28.5798C18.679 28.4988 18.536 28.4568 18.39 28.4598H14.21C13.811 28.4608 13.469 28.7558 13.41 29.1498L11.63 27.5698C11.543 27.4928 11.445 27.4288 11.34 27.3798H10.23L10.15 27.4298C10.097 27.4538 10.05 27.4878 10.01 27.5298L0.809979 35.6998C0.421979 36.0318 0.288979 36.5768 0.479979 37.0498C0.675979 37.5208 1.13998 37.8258 1.64998 37.8198H2.84998V45.8198C2.85498 46.2498 3.20998 46.5998 3.63998 46.5998C3.64298 46.5998 3.64698 46.5998 3.64998 46.5998H8.70998C8.78598 46.6138 8.86398 46.6138 8.93998 46.5998L9.08998 46.5398C9.15898 46.5058 9.22298 46.4618 9.27998 46.4098L9.37998 46.2898C9.40298 46.2348 9.41898 46.1778 9.42998 46.1198C9.43498 46.0628 9.43498 46.0068 9.42998 45.9498V41.0698H12.01V45.8498C12.015 46.2798 12.37 46.6298 12.8 46.6298C12.803 46.6298 12.807 46.6298 12.81 46.6298H18C18.198 46.6178 18.386 46.5358 18.53 46.3998L18.58 46.3398V46.2798C18.58 46.2798 18.58 46.2298 18.63 46.2198V46.0098C18.635 45.9698 18.635 45.9298 18.63 45.8898V37.8898H20C20.531 37.9138 21.018 37.5828 21.19 37.0798ZM18.98 36.2898H18C17.704 36.2858 17.429 36.4478 17.29 36.7098C17.23 36.8198 17.199 36.9438 17.2 37.0698V45.0698H13.7V40.2898C13.701 40.1348 13.652 39.9838 13.56 39.8598L13.46 39.7398L13.27 39.6098C13.225 39.5798 13.174 39.5588 13.12 39.5498C13.044 39.5398 12.966 39.5398 12.89 39.5498H8.62998C8.55098 39.5588 8.47398 39.5788 8.39998 39.6098H8.29998C8.23698 39.6518 8.17898 39.7018 8.12998 39.7598C8.09798 39.7998 8.07098 39.8428 8.04998 39.8898C7.98698 40.0028 7.95198 40.1298 7.94998 40.2598V45.0398H4.44998V37.0398C4.44998 36.6118 4.09798 36.2598 3.66998 36.2598C3.66698 36.2598 3.66298 36.2598 3.65998 36.2598H2.47998L10.8 28.8798L13.67 31.4298H14.32C14.346 31.4348 14.374 31.4348 14.4 31.4298C14.689 31.3128 14.879 31.0308 14.88 30.7198V29.9998H17.45V34.5898C17.453 34.8128 17.551 35.0238 17.72 35.1698L18.67 36.0198L18.98 36.2898Z" fill="#414141"/>
</svg>
