<svg width="12" height="20" viewBox="0 0 12 20" fill="none" xmlns="http://www.w3.org/2000/svg">
<g clip-path="url(#clip0_823_178)">
<path d="M8.41009 3.63682C8.41009 3.25296 8.25307 2.88481 7.97358 2.61338C7.69409 2.34194 7.31502 2.18945 6.91977 2.18945C6.52451 2.18945 6.14544 2.34194 5.86595 2.61338C5.58646 2.88481 5.42944 3.25296 5.42944 3.63682C5.42944 4.02069 5.58646 4.38883 5.86595 4.66027C6.14544 4.9317 6.52451 5.08419 6.91977 5.08419C7.31502 5.08419 7.69409 4.9317 7.97358 4.66027C8.25307 4.38883 8.41009 4.02069 8.41009 3.63682Z" stroke="#A0A0A0" stroke-width="2"/>
<path d="M4.14378 7.58548C3.53862 10.5223 2.92262 13.5557 2.29578 16.6855C2.23978 16.9635 2.22939 17.1561 2.26462 17.2631C2.50307 17.9921 3.57475 17.9144 3.759 17.1894C3.94146 16.4745 4.25668 15.1324 4.70468 13.1631C4.8501 12.5219 4.93817 12.1539 4.96888 12.0592C4.97188 12.0493 4.97747 12.0404 4.98509 12.0333C4.99271 12.0262 5.00211 12.0211 5.01236 12.0186C5.02261 12.0161 5.03335 12.0162 5.04355 12.0189C5.05374 12.0216 5.06302 12.0269 5.07049 12.0342L6.52829 13.45C6.53603 13.4575 6.54216 13.4662 6.54635 13.4757C6.55053 13.4852 6.55268 13.4952 6.55268 13.5052C6.55178 14.4912 6.54997 15.5583 6.54726 16.7065C6.54591 17.2302 6.62855 17.6092 7.20165 17.6947C7.61713 17.757 7.89217 17.5666 8.02675 17.1236C8.03125 17.1079 8.03398 17.0916 8.03488 17.075C8.04842 15.9258 8.04707 14.5434 8.03081 12.9276C8.0272 12.5486 7.89352 12.2324 7.62978 11.9789C7.39765 11.757 7.03049 11.4109 6.52829 10.9407C6.51135 10.925 6.49883 10.9054 6.49195 10.8837C6.48507 10.8621 6.48406 10.8391 6.489 10.8171L6.90494 8.78153C6.90686 8.77191 6.91148 8.76295 6.91826 8.75566C6.92504 8.74838 6.93371 8.74307 6.9433 8.74033C6.95289 8.7376 6.96301 8.73754 6.97251 8.74017C6.98201 8.7428 6.99052 8.74801 6.99707 8.75521C7.77294 9.57714 8.7272 10.1197 9.85984 10.3828C10.1706 10.4548 10.4022 10.4521 10.5549 10.375C11.1239 10.0855 11.128 9.36311 10.5535 9.07232C10.4876 9.03899 10.3087 8.98679 10.017 8.91574C9.09436 8.69206 8.3072 8.0789 7.80591 7.30127C7.203 6.36443 6.85346 5.56311 5.93081 5.44469C5.64991 5.40872 5.25971 5.49337 4.76023 5.69864C3.36746 6.27232 2.54868 6.61355 2.30391 6.72232C1.66984 7.00302 1.34017 7.45171 1.31488 8.06837C1.29952 8.43855 1.29455 8.9846 1.29997 9.70653C1.30675 10.4947 2.28359 10.8486 2.709 10.121C2.77946 10.0017 2.81288 9.80697 2.80926 9.53679C2.80294 8.90522 2.80429 8.4232 2.81333 8.09074C2.81324 8.08042 2.81646 8.07032 2.82252 8.06184C2.82859 8.05335 2.83721 8.04691 2.8472 8.04337L4.1221 7.56837C4.12475 7.56743 4.12759 7.56718 4.13037 7.56763C4.13315 7.56808 4.13576 7.56922 4.13794 7.57095C4.14013 7.57267 4.14181 7.57492 4.14284 7.57746C4.14386 7.58001 4.14418 7.58277 4.14378 7.58548Z" stroke="#A0A0A0" stroke-width="2"/>
<path d="M16 0V20H-5V0H16ZM8.41019 3.63684C8.41019 3.25298 8.25318 2.88483 7.97369 2.6134C7.6942 2.34196 7.31513 2.18947 6.91987 2.18947C6.52461 2.18947 6.14554 2.34196 5.86605 2.6134C5.58657 2.88483 5.42955 3.25298 5.42955 3.63684C5.42955 4.02071 5.58657 4.38885 5.86605 4.66029C6.14554 4.93172 6.52461 5.08421 6.91987 5.08421C7.31513 5.08421 7.6942 4.93172 7.97369 4.66029C8.25318 4.38885 8.41019 4.02071 8.41019 3.63684ZM4.14381 7.58553C3.53864 10.5224 2.92265 13.5557 2.29581 16.6855C2.23981 16.9636 2.22942 17.1561 2.26465 17.2632C2.5031 17.9921 3.57477 17.9145 3.75903 17.1895C3.94148 16.4746 4.25671 15.1325 4.70471 13.1632C4.85013 12.5219 4.93819 12.1539 4.9689 12.0592C4.97191 12.0494 4.97749 12.0405 4.98512 12.0333C4.99274 12.0262 5.00214 12.0212 5.01239 12.0186C5.02263 12.0161 5.03338 12.0162 5.04357 12.019C5.05376 12.0217 5.06305 12.0269 5.07052 12.0342L6.52832 13.45C6.53606 13.4575 6.54219 13.4663 6.54638 13.4757C6.55056 13.4852 6.55271 13.4953 6.55271 13.5053C6.55181 14.4912 6.55 15.5583 6.54729 16.7066C6.54594 17.2303 6.62858 17.6092 7.20168 17.6947C7.61716 17.757 7.89219 17.5667 8.02677 17.1237C8.03128 17.1079 8.03401 17.0916 8.0349 17.075C8.04845 15.9259 8.0471 14.5434 8.03084 12.9276C8.02723 12.5487 7.89355 12.2325 7.62981 11.9789C7.39768 11.757 7.03052 11.411 6.52832 10.9408C6.51137 10.9251 6.49886 10.9054 6.49198 10.8838C6.4851 10.8621 6.48409 10.8392 6.48903 10.8171L6.90497 8.78158C6.90689 8.77195 6.91151 8.76299 6.91829 8.75571C6.92507 8.74843 6.93374 8.74312 6.94333 8.74038C6.95292 8.73764 6.96304 8.73759 6.97254 8.74022C6.98204 8.74285 6.99055 8.74806 6.9971 8.75526C7.77297 9.57719 8.72723 10.1197 9.85987 10.3829C10.1706 10.4548 10.4023 10.4522 10.5549 10.375C11.1239 10.0855 11.128 9.36316 10.5535 9.07237C10.4876 9.03903 10.3088 8.98684 10.017 8.91579C9.09439 8.69211 8.30723 8.07895 7.80594 7.30132C7.20303 6.36447 6.85348 5.56316 5.93084 5.44474C5.64994 5.40877 5.25974 5.49342 4.76026 5.69868C3.36748 6.27237 2.54871 6.6136 2.30394 6.72237C1.66987 7.00307 1.34019 7.45175 1.3149 8.06842C1.29955 8.4386 1.29458 8.98465 1.3 9.70658C1.30677 10.4947 2.28361 10.8487 2.70903 10.1211C2.77948 10.0018 2.8129 9.80702 2.80929 9.53684C2.80297 8.90526 2.80432 8.42325 2.81335 8.09079C2.81327 8.08046 2.81649 8.07037 2.82255 8.06188C2.82862 8.0534 2.83723 8.04695 2.84723 8.04342L4.12213 7.56842C4.12477 7.56748 4.12762 7.56722 4.1304 7.56768C4.13318 7.56813 4.13579 7.56927 4.13797 7.57099C4.14016 7.57272 4.14184 7.57496 4.14287 7.57751C4.14389 7.58006 4.14421 7.58282 4.14381 7.58553Z" fill="white"/>
<path d="M6.91977 5.08419C7.74285 5.08419 8.41009 4.43618 8.41009 3.63682C8.41009 2.83746 7.74285 2.18945 6.91977 2.18945C6.09668 2.18945 5.42944 2.83746 5.42944 3.63682C5.42944 4.43618 6.09668 5.08419 6.91977 5.08419Z" fill="#414141"/>
<path d="M4.14378 7.58554C4.14418 7.58283 4.14386 7.58007 4.14284 7.57752C4.14181 7.57498 4.14013 7.57273 4.13794 7.57101C4.13576 7.56928 4.13315 7.56814 4.13037 7.56769C4.12759 7.56724 4.12475 7.56749 4.1221 7.56843L2.8472 8.04343C2.83721 8.04697 2.82859 8.05342 2.82252 8.0619C2.81646 8.07038 2.81324 8.08048 2.81333 8.0908C2.80429 8.42326 2.80294 8.90528 2.80926 9.53686C2.81288 9.80703 2.77946 10.0018 2.709 10.1211C2.28359 10.8487 1.30675 10.4947 1.29997 9.70659C1.29455 8.98466 1.29952 8.43861 1.31488 8.06843C1.34017 7.45177 1.66984 7.00308 2.30391 6.72238C2.54868 6.61361 3.36746 6.27238 4.76023 5.6987C5.25971 5.49343 5.64991 5.40878 5.93081 5.44475C6.85346 5.56317 7.203 6.36449 7.80591 7.30133C8.3072 8.07896 9.09436 8.69212 10.017 8.9158C10.3087 8.98686 10.4876 9.03905 10.5535 9.07238C11.128 9.36317 11.1239 10.0855 10.5549 10.375C10.4022 10.4522 10.1706 10.4548 9.85984 10.3829C8.7272 10.1198 7.77294 9.57721 6.99707 8.75528C6.99052 8.74807 6.98201 8.74286 6.97251 8.74023C6.96301 8.7376 6.95289 8.73766 6.9433 8.7404C6.93371 8.74313 6.92504 8.74844 6.91826 8.75573C6.91148 8.76301 6.90686 8.77197 6.90494 8.78159L6.48901 10.8171C6.48406 10.8392 6.48507 10.8621 6.49195 10.8838C6.49883 10.9054 6.51135 10.9251 6.52829 10.9408C7.03049 11.411 7.39765 11.757 7.62978 11.979C7.89352 12.2325 8.0272 12.5487 8.03081 12.9276C8.04707 14.5434 8.04842 15.9259 8.03488 17.075C8.03398 17.0916 8.03125 17.108 8.02675 17.1237C7.89217 17.5667 7.61713 17.757 7.20165 17.6947C6.62855 17.6092 6.54591 17.2303 6.54726 16.7066C6.54997 15.5583 6.55178 14.4912 6.55268 13.5053C6.55268 13.4953 6.55053 13.4852 6.54635 13.4758C6.54216 13.4663 6.53603 13.4575 6.52829 13.45L5.07049 12.0342C5.06302 12.027 5.05374 12.0217 5.04355 12.019C5.03335 12.0162 5.02261 12.0161 5.01236 12.0186C5.00211 12.0212 4.99271 12.0262 4.98509 12.0333C4.97747 12.0405 4.97188 12.0494 4.96888 12.0592C4.93817 12.154 4.8501 12.5219 4.70468 13.1632C4.25668 15.1325 3.94146 16.4746 3.759 17.1895C3.57475 17.9145 2.50307 17.9921 2.26462 17.2632C2.22939 17.1562 2.23978 16.9636 2.29578 16.6855C2.92262 13.5557 3.53862 10.5224 4.14378 7.58554Z" fill="#414141"/>
</g>
<defs>
<clipPath id="clip0_823_178">
<rect width="12" height="20" fill="white"/>
</clipPath>
</defs>
</svg>
